<svg xmlns="http://www.w3.org/2000/svg" width="626" height="206" style="isolation:isolate" viewBox="371 91 626 206"><path fill-rule="evenodd" d="M435 296l147-1a24777 24777 0 0 0 346 0h14v-30h5c5 0 15 2 18 4l3 1c0-1-4-4-11-6l-2-1h2c4-2 10-1 15 1 3 2 5 3 6 6s1 4-1 6l-3 3c-3 1-9-2-17-7l-6-3c-2 2 15 13 21 13 7 0 10-6 6-15 0-2-2-3-6-5-6-3-9-3-15-1h-15l9-5c9-5 15-11 20-19l2-5h9c9 0 9 0 12-3 5-6 3-12-4-12h-4l7-16c0-4-3-7-5-7-3 0-8 3-11 8-3 6-5 12-6 22s-2 12-8 19c-4 4-12 10-15 10l3-7c5-10 7-22 4-31-2-7-2-11-1-14l8-6c10-9 15-17 13-25-1-4-2-5-8-3-5 1-11 8-14 16-3 6-3 11-2 17v4l-5-7-4-6v-23l1-23h3c4 0 4 0 2 1-1 1-1 1 3 3 8 3 12 5 18 5s7-1 8-3c2-3 2-7-1-11-3-5-14-5-20 1-2 2-3 2-8 2l-5-1 8-8 13-14c4-7 7-9 6-5-1 2 0 2 2-1 4-3 15-6 15-4s-7 5-11 6l-6 2c-3 1-3 1 1 2 10 0 19-6 18-11 0-2-4-3-10-2-3 1-4 1-2-1s4-8 3-12c-1-2-1-3-4-3-2 0-3 1-5 5l-4 12c-2 6-3 8-9 15l-8 8v-4c2-6 2-13 1-14s-1 1-1 5c0 6-2 7-3 2-3-8-1-14 4-14s7 5 4 14l-2 6 3-3c3-6 3-15 0-18-4-2-9-2-10 1-2 3-2 13 0 17 3 5 2 9-1 12l-2 2-1-10v-19l-7-1H416v37l-5-3c-7-4-14-11-13-14 2-6 2-9 2-14-1-5-2-6-4-8-3-3-6-3-8-1s-2 11 1 15l3 5h-5c-6 0-8 1-6 4 1 4 6 6 11 6s5 0 7 3l7 4 7 5 3 3v32l-7-7c-11-9-12-11-13-20v-9c4-5 6-1 3 5l-1 3c0 2 2 0 4-4s2-6-1-8c-2-2-3-2-5 0s-3 3-3 6l-1 5-3-2c-6-3-9 0-6 6 3 3 4 4 7 4s4 0 5 2c0 2 4 7 8 11 8 8 9 9 3 6-4-3-11-3-15 0l-3 3c0 3 5 5 12 5 9 0 14-1 15-2v30c-1 6-1 8-5 12l-4 6-3-10c-4-13-8-16-17-16s-10 3-7 12c1 2 12 7 17 8l6 2c2 2 2 2 0 20 0 4 0 6 2 10 4 8 4 8-4 7-10-1-22 1-25 3l-4 5c0 3 0 4 2 6 4 5 15 2 26-7 6-4 10-5 13-1 2 2 3 4 3 13l1 12h3l16-1zm48-5h-17l-11 1-2-3c-2-2-5-5-10-7l-8-6c-2-4-1-5 6-13l7-10c2-5 2-12 0-16-2-3-3-3-7-3-5 0-9 2-13 8-3 5-3 6-3 14 1 7 1 9 4 14l2 6-6-2-6-3v-24c0-23 0-25 2-28l4-12c3-13 5-16 19-24 12-6 15-9 14-14-1-6-7-7-14-3-6 4-8 7-10 14-3 8-9 17-9 13l-3-5c-4-6-4-9-1-18s3-14 1-17c-1-3-1-3 4-8s6-6 6-9l-2-8c-2-4-6-3-9 1l-2 4v-23h411l108-1 1 14v16c-1 3-10 13-11 12l1-4c2-6 0-18-4-24-2-2-3-2-8-2l-7 1c-2 2-2 12 0 16s9 11 13 13l3 2-1 11c-1 15 0 17 8 24l6 5v22l-4-1c-5-1-11 1-12 4l4 8 6 3 5 2 1 12v14l-6 5c-4 1-8 4-10 6-4 3-4 3-2-2s2-13 0-19c-1-4-2-6-5-8-8-5-12-2-12 7 0 7 2 14 8 26l2 5-1 6-2 7a9533 9533 0 0 1-150 2H533l-50-1zm-64-6v-8l3 1 14 7 12 6-24 2h-5v-8zm495 4l2-7c5-9 13-16 20-17h3v12c1 10 0 13-1 13l-13 1h-11v-2zm-538-10c-2 0-2-1-2-3 0-4 4-7 12-7h6l-5 6 3-2c4-3 9-3 7-1l-15 8-6-1zm535-13c-7-15-8-27-2-27 4-1 9 3 10 8 2 5 2 14 0 19-1 4-1 4-3-8l-3-6v1c1 3 3 17 2 19l-4-6zm-482 1l-1-9c-1-7 0-9 2-13 2-5 5-8 10-9 4-1 6 1 6 7 1 6-1 11-7 17l-5 5 1-5 3-10 1-6c-1-1-4 7-5 13-2 8-4 12-5 10zm-18-4l-4-8c-3-6-1-16 4-24l3-4 1 14v20l-1 7-3-5zm531-19v-12l3-1c3 0 4 0 5 2l2 3-8 17-2 3v-12zm6-19l-4-7c-2-2-2-3-2-11v-10l4 6c5 8 7 14 7 25 0 4-2 3-5-3zm-6 4l1-1 2 1-2 1-1-1zm-8-2c-4-1-9-5-9-8 0-2 2-2 7-2s7 0 7 3c0 2-1 2-4 0-2-1-1 0 1 2l3 5c0 2 0 2-5 0zm50-2c6-3 7-5 0-3-4 2-4 1 0-1s9-2 9 1c1 5-2 7-9 6h-7l7-3zm-41 1l-1-4 2 1c2 1 2 3 2 3h-3zm30-3c0-8 7-25 12-26 8-2 6 8-4 20l-4 5c-1 0 2-7 5-10 3-5 3-5 1-3-4 3-7 8-8 13l-2 5v-4zm-581 1c-7-3-11-5-12-9-1-3 0-4 1-5 3-2 7-2 11 0 3 2 5 3 7 9l1 3-4-3c-5-4-8-5-11-5l3 2c6 3 13 10 11 10l-7-2zm27-22c0-12 0-13 1-10 2 3 2 11 0 17-1 5-1 5-1-7zm537-6l8-15 3-4c-2 0-8 7-11 14-3 5-3 5-3 2 0-4 3-13 6-17 5-7 14-10 14-5 0 4 0 6-2 9-2 4-15 18-15 16zm-22-12c-5-4-6-8-6-16 0-7 2-12 7-18l5-5v19l-1 21-1 3-4-4zm-540-1c-2 0-2-1-2-2 2-1 8-2 10-1 1 0 1 1-1 1l-1 1 4 1c3 0 4 0 3 1-2 1-10 1-13-1zm47-4c5-5 5-7-1-2l-5 4 2-4c4-7 11-12 15-11 2 0 3 1 3 3 0 4-3 6-12 11l-7 4 5-5zm-22-19c0-5 0-6 1-5v10c-1 1-1 0-1-5zm-33-5c-2-3-2-4 0-4l7 6c0 2-5 0-7-2zm572-6l-6-3h6c8 0 8-2 1-3h-4l4-2c9-5 17-2 17 5 0 6-7 7-18 3zm-39-4c-7-7-9-9-8-17 0-5 0-5 4-5 6-1 8 0 10 5s4 19 2 18l-1-2c0-2-5-7-7-7l1 2c3 2 6 10 5 11l-6-5zm-497-1l2-4c2-5 0-6-2-1-2 3-2 3-2 1-1-3 3-11 5-12s4 3 4 7c0 2-1 4-4 7l-3 2zm-37-15l-3-2 3-1 6 1 3 1-3 1h-4 3c5 1 6 3 1 3-3 0-5-1-6-3zm7-11c-2-6-3-11-1-12s5 2 6 7c1 6 1 6-1 4-1-2-1-2-1 2 1 5-1 4-3-1zm576-9c5-14 10-21 10-12 0 2-1 5-3 7l-4 5-2 3-1-3z"/><path fill-rule="evenodd" d="M519 196l10 33 9 29 1 1h2l1-2v-1l-4-12-5-18-6-18-6-18v-2l5-12 1-2 7-17 2-3 2-6-1-1-2-1q-2 0-10 20l-5 13-8 18 1-17v-24l-1-5-2-1-2 2v32l-1 28v42l1 4 2 1 1-1 1-3v-51l2-3 1-2 1-2 1-1 1-2v-1l1 3zm44-4q0 68 20 68 5 0 8-5l3-6 1-6 2-8v-21q0-19-3-43l-1-7-2-6-3-5-5-4-6-1q-4 0-6 3-3 2-4 5l-3 9-1 10v17zm15-40l5 2 4 5 2 9q2 4 2 9v2l2 18v30l-3 19q-1 5-3 7-2 3-4 3-4 0-7-5l-4-11-3-16-2-25v-6l1-15 1-9 1-8q1-5 3-7t5-2zm43 40q0 68 20 68 5 0 8-5l3-6 2-6 1-8v-7l1-13v-1q0-19-4-43l-1-7-2-6-3-5-5-4-6-1q-3 0-6 3-3 2-4 5-2 4-2 9l-2 10v17zm15-40q3 0 5 2l4 5 3 9 1 9 1 2 1 18v30q0 9-3 19-1 5-3 7-2 3-4 3-3 0-6-5l-5-11-3-16-2-25v-6l1-15 1-9 2-8q1-5 3-7 1-2 4-2zm46 103l1 2 2 1h13l1-1 1-2q0-3-2-3h-11l-1-18-1-19v-26l-1-39q0-2-2-2h-2l-1 2 1 29 1 30 1 20v26zm67 2l-2-1-1-1v-19l-4-2-8-2h-7l-2 5-2 11-2 8-2 1-2-1-1-2 2-7 3-13 2-10 5-28 6-27 2-10 2-6 2-2 3 1 3 14 2 26 2 24 1 18 1 19-1 3-2 1zm-6-27q3 0 3-2l-1-24-2-27-2-16v-3q-2 3-2 7l-3 14-6 32-1 5-1 6-1 5v1q6 2 14 2h2zm34-6v7l1 6 1 6 3 6 3 6 5 3 6 2 6-2 4-4 2-5 1-6v-90l-1-3-2-1-2 1-1 3 1 12v12l1 18v47l-1 5-1 4-3 3-5 1-5-2-3-5-3-7-2-13-2-32-1-40v-4l-3-1q-2 0-2 4v2l1 37 2 30zm81 32q1 2 3 2h2l1-3-1-1-15-59 2-4 2-5q3-8 3-14l-1-8-3-8q-1-3-5-5-3-2-7-2l-2 1v19l-1 42v45l1 1 1 1q3 0 3-3v-57h1l2-1 4 16 2 14 6 22 2 7zm-18-102h1q3 0 5 2l3 5 1 12v8l-2 6-4 4q-2 3-4 3v-40z"/></svg>